<svg xmlns="http://www.w3.org/2000/svg"stroke-linejoin="round"width="418"height="318"viewBox="0 0 418 318">
    <defs>
        <marker id="arrow"viewBox="0 0 20 20"refX="2"refY="5"markerUnits="strokeWidth"markerWidth="10"markerHeight="10"orient="auto">
            <path d="M 0,0 L 10,5 L 0,10 2,5 z"fill="red"fill-opacity="50%" />
        </marker>
    </defs>
    <rect width="100%"height="100%"fill="white" />
    <polyline points="3,103 3,3 103,3"stroke-width="6"stroke="black"fill="none" />
    <polyline points="103,3 203,3 203,103"stroke-width="6"stroke="black"fill="none" />
    <text x="253"y="53"font-size="50px"text-anchor="middle"dominant-baseline="middle">🏁</text>
    <line x1="203"y1="3"x2="203"y2="103"stroke-width="6"stroke="black"fill="none" />
    <line x1="303"y1="3"x2="303"y2="103"stroke-width="6"stroke="black"fill="none" />
    <polyline points="303,103 303,3 403,3 403,103"stroke-width="6"stroke="black"fill="none" />
    <polyline points="103,103 103,203 3,203 3,103"stroke-width="6"stroke="black"fill="none" />
    <line x1="103"y1="103"x2="103"y2="203"stroke-width="6"stroke="black"fill="none" />
    <line x1="203"y1="103"x2="203"y2="203"stroke-width="6"stroke="black"fill="none" />
    <polyline points="303,203 203,203 203,103"stroke-width="6"stroke="black"fill="none" />
    <line x1="403"y1="103"x2="403"y2="203"stroke-width="6"stroke="black"fill="none" />
    <text x="53"y="253"font-size="50px"text-anchor="middle"dominant-baseline="middle">🚶</text>
    <polyline points="3,303 3,203 103,203"stroke-width="6"stroke="black"fill="none" />
    <line x1="103"y1="303"x2="203"y2="303"stroke-width="6"stroke="black"fill="none" />
    <line x1="203"y1="203"x2="303"y2="203"stroke-width="6"stroke="black"fill="none" />
    <line x1="203"y1="303"x2="303"y2="303"stroke-width="6"stroke="black"fill="none" />
    <polyline points="403,203 403,303 303,303"stroke-width="6"stroke="black"fill="none" />
    <polyline points="53,253 353,253 353,153 253,153 253,53"stroke-width="12"stroke-opacity="50%"stroke="red"fill="none"marker-end="url(#arrow)" />
</svg>